<svg xmlns="http://www.w3.org/2000/svg" width="538.558" height="100.102"><g><g><path d="M537.98 5.508H.577" stroke="#ccc" stroke-width="1.156" fill="none"/><path d="M13 5.05c0 2.79-2.262 5.052-5.052 5.052-2.79 0-5.05-2.262-5.05-5.05C2.898 2.26 5.158 0 7.948 0s5.05 2.262 5.05 5.05z" fill="#008000"/><path d="M57.446 5.05c0 2.79-2.26 5.052-5.05 5.052s-5.05-2.262-5.05-5.05c0-2.79 2.26-5.052 5.05-5.052s5.05 2.262 5.05 5.05z" fill="#a00"/><path d="M133.207 5.05c0 2.79-2.26 5.052-5.05 5.052s-5.05-2.262-5.05-5.05c0-2.79 2.26-5.052 5.05-5.052s5.05 2.262 5.05 5.05z" fill="#008000"/><path d="M212 5.05c0 2.79-2.262 5.052-5.052 5.052-2.79 0-5.05-2.262-5.05-5.05 0-2.79 2.26-5.052 5.05-5.052s5.05 2.262 5.05 5.05z" fill="#008000"/><path d="M324.126 5.05c0 2.79-2.26 5.052-5.05 5.052s-5.05-2.262-5.05-5.05c0-2.79 2.26-5.052 5.05-5.052s5.05 2.262 5.05 5.05z" fill="#d40000"/><path d="M510.5 5.05c0 2.79-2.262 5.052-5.052 5.052-2.79 0-5.05-2.262-5.05-5.05 0-2.79 2.26-5.052 5.05-5.052s5.05 2.262 5.05 5.05z" fill="#008000"/></g><g><path d="M537.98 16.758H.58" stroke="#ccc" stroke-width="1.156" fill="none"/><path d="M27.285 16.3c0 2.79-2.26 5.05-5.05 5.05s-5.05-2.26-5.05-5.05 2.26-5.05 5.05-5.05 5.05 2.26 5.05 5.05z" fill="#008000"/><path d="M100.59 16.3c0 2.79-2.262 5.05-5.052 5.05-2.79 0-5.05-2.26-5.05-5.05s2.26-5.05 5.05-5.05 5.05 2.26 5.05 5.05z" fill="#a00"/><path d="M71.208 16.3c0 2.79-2.26 5.05-5.05 5.05s-5.05-2.26-5.05-5.05 2.26-5.05 5.05-5.05 5.05 2.26 5.05 5.05z" fill="#008000"/><path d="M180 16.3c0 2.79-2.26 5.05-5.05 5.05s-5.05-2.26-5.05-5.05 2.26-5.05 5.05-5.05S180 13.51 180 16.3z" fill="#008000"/><path d="M441.84 16.3c0 2.79-2.26 5.05-5.05 5.05s-5.05-2.26-5.05-5.05 2.26-5.05 5.05-5.05 5.05 2.26 5.05 5.05z" fill="#d40000"/><path d="M337.643 16.3c0 2.79-2.26 5.05-5.05 5.05s-5.05-2.26-5.05-5.05 2.26-5.05 5.05-5.05 5.05 2.26 5.05 5.05z" fill="#008000"/></g><g><path d="M537.98 28.008H.577" stroke="#ccc" stroke-width="1.156" fill="none"/><path d="M31.57 27.55c0 2.79-2.26 5.052-5.05 5.052s-5.05-2.262-5.05-5.05c0-2.79 2.26-5.052 5.05-5.052s5.05 2.262 5.05 5.05z" fill="#008000"/><path d="M132.875 27.55c0 2.79-2.26 5.052-5.05 5.052s-5.05-2.262-5.05-5.05c0-2.79 2.26-5.052 5.05-5.052s5.05 2.262 5.05 5.05z" fill="#a00"/><path d="M87.493 27.55c0 2.79-2.26 5.052-5.05 5.052s-5.05-2.262-5.05-5.05c0-2.79 2.26-5.052 5.05-5.052s5.05 2.262 5.05 5.05z" fill="#008000"/><path d="M293.428 27.55c0 2.79-2.26 5.052-5.05 5.052s-5.05-2.262-5.05-5.05c0-2.79 2.26-5.052 5.05-5.052s5.05 2.262 5.05 5.05z" fill="#008000"/><path d="M224.84 27.55c0 2.79-2.26 5.052-5.05 5.052s-5.05-2.262-5.05-5.05c0-2.79 2.26-5.052 5.05-5.052s5.05 2.262 5.05 5.05z" fill="#d40000"/><path d="M405.5 27.55c0 2.79-2.262 5.052-5.052 5.052-2.79 0-5.05-2.262-5.05-5.05 0-2.79 2.26-5.052 5.05-5.052s5.05 2.262 5.05 5.05z" fill="#008000"/></g><g><path d="M537.98 50.508H.577" stroke="#ccc" stroke-width="1.156" fill="none"/><path d="M83 50.05c0 2.79-2.262 5.052-5.052 5.052-2.79 0-5.05-2.262-5.05-5.05 0-2.79 2.26-5.052 5.05-5.052s5.05 2.262 5.05 5.05z" fill="#008000"/><path d="M171.017 50.05c0 2.79-2.26 5.052-5.05 5.052s-5.05-2.262-5.05-5.05c0-2.79 2.26-5.052 5.05-5.052s5.05 2.262 5.05 5.05z" fill="#a00"/><path d="M253.412 50.05c0 2.79-2.26 5.052-5.05 5.052s-5.05-2.262-5.05-5.05c0-2.79 2.26-5.052 5.05-5.052s5.05 2.262 5.05 5.05z" fill="#d40000"/><path d="M296.983 50.05c0 2.79-2.26 5.052-5.05 5.052s-5.05-2.262-5.05-5.05c0-2.79 2.26-5.052 5.05-5.052s5.05 2.262 5.05 5.05z" fill="#d40000"/><path d="M336.27 50.05c0 2.79-2.262 5.052-5.052 5.052-2.79 0-5.05-2.262-5.05-5.05 0-2.79 2.26-5.052 5.05-5.052s5.05 2.262 5.05 5.05z" fill="#d40000"/><path d="M386.27 50.05c0 2.79-2.262 5.052-5.052 5.052-2.79 0-5.05-2.262-5.05-5.05 0-2.79 2.26-5.052 5.05-5.052s5.05 2.262 5.05 5.05z" fill="#d40000"/><path d="M456.983 50.05c0 2.79-2.26 5.052-5.05 5.052s-5.05-2.262-5.05-5.05c0-2.79 2.26-5.052 5.05-5.052s5.05 2.262 5.05 5.05z" fill="#d40000"/><path d="M521.983 50.05c0 2.79-2.26 5.052-5.05 5.052s-5.05-2.262-5.05-5.05c0-2.79 2.26-5.052 5.05-5.052s5.05 2.262 5.05 5.05z" fill="#d40000"/></g><g><path d="M537.98 39.258H.577" stroke="#ccc" stroke-width="1.156" fill="none"/><path d="M93 38.8c0 2.79-2.262 5.052-5.052 5.052-2.79 0-5.05-2.262-5.05-5.05 0-2.79 2.26-5.052 5.05-5.052s5.05 2.262 5.05 5.05z" fill="#008000"/><path d="M38.16 38.8c0 2.79-2.26 5.052-5.05 5.052s-5.05-2.262-5.05-5.05c0-2.79 2.26-5.052 5.05-5.052s5.05 2.262 5.05 5.05z" fill="#a00"/><path d="M149.636 38.8c0 2.79-2.26 5.052-5.05 5.052s-5.05-2.262-5.05-5.05c0-2.79 2.26-5.052 5.05-5.052s5.05 2.262 5.05 5.05z" fill="#008000"/><path d="M187.714 38.8c0 2.79-2.26 5.052-5.05 5.052s-5.05-2.262-5.05-5.05c0-2.79 2.26-5.052 5.05-5.052s5.05 2.262 5.05 5.05z" fill="#008000"/><path d="M324.126 38.8c0 2.79-2.26 5.052-5.05 5.052s-5.05-2.262-5.05-5.05c0-2.79 2.26-5.052 5.05-5.052s5.05 2.262 5.05 5.05z" fill="#008000"/><path d="M392.642 38.8c0 2.79-2.26 5.052-5.05 5.052s-5.05-2.262-5.05-5.05c0-2.79 2.26-5.052 5.05-5.052s5.05 2.262 5.05 5.05z" fill="#008000"/><path d="M431.214 38.8c0 2.79-2.26 5.052-5.05 5.052s-5.05-2.262-5.05-5.05c0-2.79 2.26-5.052 5.05-5.052s5.05 2.262 5.05 5.05z" fill="#008000"/><path d="M476.928 38.8c0 2.79-2.26 5.052-5.05 5.052s-5.05-2.262-5.05-5.05c0-2.79 2.26-5.052 5.05-5.052s5.05 2.262 5.05 5.05z" fill="#008000"/></g><g><path d="M537.98 61.758H.577" stroke="#ccc" stroke-width="1.156" fill="none"/><path d="M13 61.3c0 2.79-2.262 5.052-5.052 5.052-2.79 0-5.05-2.262-5.05-5.05 0-2.79 2.26-5.052 5.05-5.052s5.05 2.262 5.05 5.05z" fill="#008000"/><path d="M57.446 61.3c0 2.79-2.26 5.052-5.05 5.052s-5.05-2.262-5.05-5.05c0-2.79 2.26-5.052 5.05-5.052s5.05 2.262 5.05 5.05z" fill="#a00"/><path d="M133.207 61.3c0 2.79-2.26 5.052-5.05 5.052s-5.05-2.262-5.05-5.05c0-2.79 2.26-5.052 5.05-5.052s5.05 2.262 5.05 5.05z" fill="#008000"/><path d="M212 61.3c0 2.79-2.262 5.052-5.052 5.052-2.79 0-5.05-2.262-5.05-5.05 0-2.79 2.26-5.052 5.05-5.052s5.05 2.262 5.05 5.05z" fill="#008000"/><path d="M324.126 61.3c0 2.79-2.26 5.052-5.05 5.052s-5.05-2.262-5.05-5.05c0-2.79 2.26-5.052 5.05-5.052s5.05 2.262 5.05 5.05z" fill="#d40000"/><path d="M510.5 61.3c0 2.79-2.262 5.052-5.052 5.052-2.79 0-5.05-2.262-5.05-5.05 0-2.79 2.26-5.052 5.05-5.052s5.05 2.262 5.05 5.05z" fill="#008000"/></g><g><path d="M537.98 73.008H.58" stroke="#ccc" stroke-width="1.156" fill="none"/><path d="M27.285 72.55c0 2.79-2.26 5.05-5.05 5.05s-5.05-2.26-5.05-5.05 2.26-5.05 5.05-5.05 5.05 2.26 5.05 5.05z" fill="#008000"/><path d="M100.59 72.55c0 2.79-2.262 5.05-5.052 5.05-2.79 0-5.05-2.26-5.05-5.05s2.26-5.05 5.05-5.05 5.05 2.26 5.05 5.05z" fill="#a00"/><path d="M71.208 72.55c0 2.79-2.26 5.05-5.05 5.05s-5.05-2.26-5.05-5.05 2.26-5.05 5.05-5.05 5.05 2.26 5.05 5.05z" fill="#008000"/><path d="M180 72.55c0 2.79-2.26 5.05-5.05 5.05s-5.05-2.26-5.05-5.05 2.26-5.05 5.05-5.05 5.05 2.26 5.05 5.05z" fill="#008000"/><path d="M441.84 72.55c0 2.79-2.26 5.05-5.05 5.05s-5.05-2.26-5.05-5.05 2.26-5.05 5.05-5.05 5.05 2.26 5.05 5.05z" fill="#d40000"/><path d="M337.643 72.55c0 2.79-2.26 5.05-5.05 5.05s-5.05-2.26-5.05-5.05 2.26-5.05 5.05-5.05 5.05 2.26 5.05 5.05z" fill="#008000"/></g><g><path d="M537.98 84.258H.577" stroke="#ccc" stroke-width="1.156" fill="none"/><path d="M31.57 83.8c0 2.79-2.26 5.052-5.05 5.052s-5.05-2.262-5.05-5.05c0-2.79 2.26-5.052 5.05-5.052s5.05 2.262 5.05 5.05z" fill="#008000"/><path d="M132.875 83.8c0 2.79-2.26 5.052-5.05 5.052s-5.05-2.262-5.05-5.05c0-2.79 2.26-5.052 5.05-5.052s5.05 2.262 5.05 5.05z" fill="#a00"/><path d="M87.493 83.8c0 2.79-2.26 5.052-5.05 5.052s-5.05-2.262-5.05-5.05c0-2.79 2.26-5.052 5.05-5.052s5.05 2.262 5.05 5.05z" fill="#008000"/><path d="M293.428 83.8c0 2.79-2.26 5.052-5.05 5.052s-5.05-2.262-5.05-5.05c0-2.79 2.26-5.052 5.05-5.052s5.05 2.262 5.05 5.05z" fill="#008000"/><path d="M224.84 83.8c0 2.79-2.26 5.052-5.05 5.052s-5.05-2.262-5.05-5.05c0-2.79 2.26-5.052 5.05-5.052s5.05 2.262 5.05 5.05z" fill="#d40000"/><path d="M405.5 83.8c0 2.79-2.262 5.052-5.052 5.052-2.79 0-5.05-2.262-5.05-5.05 0-2.79 2.26-5.052 5.05-5.052s5.05 2.262 5.05 5.05z" fill="#008000"/></g><g><path d="M537.98 95.508H.577" stroke="#ccc" stroke-width="1.156" fill="none"/><path d="M93 95.05c0 2.79-2.262 5.052-5.052 5.052-2.79 0-5.05-2.262-5.05-5.05 0-2.79 2.26-5.052 5.05-5.052s5.05 2.262 5.05 5.05z" fill="#008000"/><path d="M38.16 95.05c0 2.79-2.26 5.052-5.05 5.052s-5.05-2.262-5.05-5.05c0-2.79 2.26-5.052 5.05-5.052s5.05 2.262 5.05 5.05z" fill="#a00"/><path d="M149.636 95.05c0 2.79-2.26 5.052-5.05 5.052s-5.05-2.262-5.05-5.05c0-2.79 2.26-5.052 5.05-5.052s5.05 2.262 5.05 5.05z" fill="#008000"/><path d="M187.714 95.05c0 2.79-2.26 5.052-5.05 5.052s-5.05-2.262-5.05-5.05c0-2.79 2.26-5.052 5.05-5.052s5.05 2.262 5.05 5.05z" fill="#008000"/><path d="M324.126 95.05c0 2.79-2.26 5.052-5.05 5.052s-5.05-2.262-5.05-5.05c0-2.79 2.26-5.052 5.05-5.052s5.05 2.262 5.05 5.05z" fill="#008000"/><path d="M392.642 95.05c0 2.79-2.26 5.052-5.05 5.052s-5.05-2.262-5.05-5.05c0-2.79 2.26-5.052 5.05-5.052s5.05 2.262 5.05 5.05z" fill="#008000"/><path d="M431.214 95.05c0 2.79-2.26 5.052-5.05 5.052s-5.05-2.262-5.05-5.05c0-2.79 2.26-5.052 5.05-5.052s5.05 2.262 5.05 5.05z" fill="#008000"/><path d="M476.928 95.05c0 2.79-2.26 5.052-5.05 5.052s-5.05-2.262-5.05-5.05c0-2.79 2.26-5.052 5.05-5.052s5.05 2.262 5.05 5.05z" fill="#008000"/></g></g></svg>