<?xml version="1.0" encoding="UTF-8" standalone="no"?>
<!-- Created with Inkscape (http://www.inkscape.org/) -->

<svg
   xmlns:dc="http://purl.org/dc/elements/1.1/"
   xmlns:cc="http://creativecommons.org/ns#"
   xmlns:rdf="http://www.w3.org/1999/02/22-rdf-syntax-ns#"
   xmlns:svg="http://www.w3.org/2000/svg"
   xmlns="http://www.w3.org/2000/svg"
   xmlns:sodipodi="http://sodipodi.sourceforge.net/DTD/sodipodi-0.dtd"
   xmlns:inkscape="http://www.inkscape.org/namespaces/inkscape"
   width="538.55762"
   height="100.10152"
   id="svg2"
   version="1.1"
   inkscape:version="0.48.1 r9760"
   sodipodi:docname="drawing.svg">
  <defs
     id="defs4" />
  <sodipodi:namedview
     id="base"
     pagecolor="#ffffff"
     bordercolor="#666666"
     borderopacity="1.0"
     inkscape:pageopacity="0.0"
     inkscape:pageshadow="2"
     inkscape:zoom="0.98994949"
     inkscape:cx="223.27246"
     inkscape:cy="55.690245"
     inkscape:document-units="px"
     inkscape:current-layer="layer1"
     showgrid="false"
     inkscape:window-width="1276"
     inkscape:window-height="709"
     inkscape:window-x="0"
     inkscape:window-y="0"
     inkscape:window-maximized="0"
     fit-margin-top="0"
     fit-margin-left="0"
     fit-margin-right="0"
     fit-margin-bottom="0" />
  <metadata
     id="metadata7">
    <rdf:RDF>
      <cc:Work
         rdf:about="">
        <dc:format>image/svg+xml</dc:format>
        <dc:type
           rdf:resource="http://purl.org/dc/dcmitype/StillImage" />
        <dc:title></dc:title>
      </cc:Work>
    </rdf:RDF>
  </metadata>
  <g
     inkscape:label="Layer 1"
     inkscape:groupmode="layer"
     id="layer1"
     transform="translate(-198.66338,-949.20404)">
    <g
       id="g3240"
       transform="translate(3.5714286,-2.1428571)">
      <path
         inkscape:connector-curvature="0"
         id="path3131"
         d="m 733.07133,956.855 -537.40116,0"
         style="fill:none;stroke:#cccccc;stroke-width:1.1564374px;stroke-linecap:butt;stroke-linejoin:miter;stroke-opacity:1" />
      <path
         transform="translate(180.81731,1003.9307)"
         d="m 27.274119,-47.533035 c 0,2.789459 -2.261304,5.050762 -5.050763,5.050762 -2.789459,0 -5.050762,-2.261303 -5.050762,-5.050762 0,-2.789459 2.261303,-5.050763 5.050762,-5.050763 2.789459,0 5.050763,2.261304 5.050763,5.050763 z"
         sodipodi:ry="5.0507627"
         sodipodi:rx="5.0507627"
         sodipodi:cy="-47.533035"
         sodipodi:cx="22.223356"
         id="path3228"
         style="fill:#008000;fill-opacity:1;stroke:none"
         sodipodi:type="arc" />
      <path
         sodipodi:type="arc"
         style="fill:#aa0000;fill-opacity:1;stroke:none"
         id="path3230"
         sodipodi:cx="22.223356"
         sodipodi:cy="-47.533035"
         sodipodi:rx="5.0507627"
         sodipodi:ry="5.0507627"
         d="m 27.274119,-47.533035 c 0,2.789459 -2.261304,5.050762 -5.050763,5.050762 -2.789459,0 -5.050762,-2.261303 -5.050762,-5.050762 0,-2.789459 2.261303,-5.050763 5.050762,-5.050763 2.789459,0 5.050763,2.261304 5.050763,5.050763 z"
         transform="translate(225.26402,1003.9307)" />
      <path
         transform="translate(301.02546,1003.9307)"
         d="m 27.274119,-47.533035 c 0,2.789459 -2.261304,5.050762 -5.050763,5.050762 -2.789459,0 -5.050762,-2.261303 -5.050762,-5.050762 0,-2.789459 2.261303,-5.050763 5.050762,-5.050763 2.789459,0 5.050763,2.261304 5.050763,5.050763 z"
         sodipodi:ry="5.0507627"
         sodipodi:rx="5.0507627"
         sodipodi:cy="-47.533035"
         sodipodi:cx="22.223356"
         id="path3232"
         style="fill:#008000;fill-opacity:1;stroke:none"
         sodipodi:type="arc" />
      <path
         sodipodi:type="arc"
         style="fill:#008000;fill-opacity:1;stroke:none"
         id="path3234"
         sodipodi:cx="22.223356"
         sodipodi:cy="-47.533035"
         sodipodi:rx="5.0507627"
         sodipodi:ry="5.0507627"
         d="m 27.274119,-47.533035 c 0,2.789459 -2.261304,5.050762 -5.050763,5.050762 -2.789459,0 -5.050762,-2.261303 -5.050762,-5.050762 0,-2.789459 2.261303,-5.050763 5.050762,-5.050763 2.789459,0 5.050763,2.261304 5.050763,5.050763 z"
         transform="translate(379.81736,1003.9307)" />
      <path
         transform="translate(491.94429,1003.9307)"
         d="m 27.274119,-47.533035 c 0,2.789459 -2.261304,5.050762 -5.050763,5.050762 -2.789459,0 -5.050762,-2.261303 -5.050762,-5.050762 0,-2.789459 2.261303,-5.050763 5.050762,-5.050763 2.789459,0 5.050763,2.261304 5.050763,5.050763 z"
         sodipodi:ry="5.0507627"
         sodipodi:rx="5.0507627"
         sodipodi:cy="-47.533035"
         sodipodi:cx="22.223356"
         id="path3236"
         style="fill:#d40000;fill-opacity:1;stroke:none"
         sodipodi:type="arc" />
      <path
         sodipodi:type="arc"
         style="fill:#008000;fill-opacity:1;stroke:none"
         id="path3238"
         sodipodi:cx="22.223356"
         sodipodi:cy="-47.533035"
         sodipodi:rx="5.0507627"
         sodipodi:ry="5.0507627"
         d="m 27.274119,-47.533035 c 0,2.789459 -2.261304,5.050762 -5.050763,5.050762 -2.789459,0 -5.050762,-2.261303 -5.050762,-5.050762 0,-2.789459 2.261303,-5.050763 5.050762,-5.050763 2.789459,0 5.050763,2.261304 5.050763,5.050763 z"
         transform="translate(678.31743,1003.9307)" />
    </g>
    <g
       id="g3384"
       transform="translate(0,-0.17855835)">
      <path
         style="fill:none;stroke:#cccccc;stroke-width:1.1564374px;stroke-linecap:butt;stroke-linejoin:miter;stroke-opacity:1"
         d="m 736.64276,966.14072 -537.40116,0"
         id="path3251"
         inkscape:connector-curvature="0" />
      <path
         sodipodi:type="arc"
         style="fill:#008000;fill-opacity:1;stroke:none"
         id="path3253"
         sodipodi:cx="22.223356"
         sodipodi:cy="-47.533035"
         sodipodi:rx="5.0507627"
         sodipodi:ry="5.0507627"
         d="m 27.274119,-47.533035 c 0,2.789459 -2.261304,5.050762 -5.050763,5.050762 -2.789459,0 -5.050762,-2.261303 -5.050762,-5.050762 0,-2.789459 2.261303,-5.050763 5.050762,-5.050763 2.789459,0 5.050763,2.261304 5.050763,5.050763 z"
         transform="translate(198.67445,1013.2164)" />
      <path
         transform="translate(271.97831,1013.2164)"
         d="m 27.274119,-47.533035 c 0,2.789459 -2.261304,5.050762 -5.050763,5.050762 -2.789459,0 -5.050762,-2.261303 -5.050762,-5.050762 0,-2.789459 2.261303,-5.050763 5.050762,-5.050763 2.789459,0 5.050763,2.261304 5.050763,5.050763 z"
         sodipodi:ry="5.0507627"
         sodipodi:rx="5.0507627"
         sodipodi:cy="-47.533035"
         sodipodi:cx="22.223356"
         id="path3255"
         style="fill:#aa0000;fill-opacity:1;stroke:none"
         sodipodi:type="arc" />
      <path
         sodipodi:type="arc"
         style="fill:#008000;fill-opacity:1;stroke:none"
         id="path3257"
         sodipodi:cx="22.223356"
         sodipodi:cy="-47.533035"
         sodipodi:rx="5.0507627"
         sodipodi:ry="5.0507627"
         d="m 27.274119,-47.533035 c 0,2.789459 -2.261304,5.050762 -5.050763,5.050762 -2.789459,0 -5.050762,-2.261303 -5.050762,-5.050762 0,-2.789459 2.261303,-5.050763 5.050762,-5.050763 2.789459,0 5.050763,2.261304 5.050763,5.050763 z"
         transform="translate(242.59689,1013.2164)" />
      <path
         transform="translate(351.38879,1013.2164)"
         d="m 27.274119,-47.533035 c 0,2.789459 -2.261304,5.050762 -5.050763,5.050762 -2.789459,0 -5.050762,-2.261303 -5.050762,-5.050762 0,-2.789459 2.261303,-5.050763 5.050762,-5.050763 2.789459,0 5.050763,2.261304 5.050763,5.050763 z"
         sodipodi:ry="5.0507627"
         sodipodi:rx="5.0507627"
         sodipodi:cy="-47.533035"
         sodipodi:cx="22.223356"
         id="path3259"
         style="fill:#008000;fill-opacity:1;stroke:none"
         sodipodi:type="arc" />
      <path
         sodipodi:type="arc"
         style="fill:#d40000;fill-opacity:1;stroke:none"
         id="path3261"
         sodipodi:cx="22.223356"
         sodipodi:cy="-47.533035"
         sodipodi:rx="5.0507627"
         sodipodi:ry="5.0507627"
         d="m 27.274119,-47.533035 c 0,2.789459 -2.261304,5.050762 -5.050763,5.050762 -2.789459,0 -5.050762,-2.261303 -5.050762,-5.050762 0,-2.789459 2.261303,-5.050763 5.050762,-5.050763 2.789459,0 5.050763,2.261304 5.050763,5.050763 z"
         transform="translate(613.23001,1013.2164)" />
      <path
         transform="translate(509.03172,1013.2164)"
         d="m 27.274119,-47.533035 c 0,2.789459 -2.261304,5.050762 -5.050763,5.050762 -2.789459,0 -5.050762,-2.261303 -5.050762,-5.050762 0,-2.789459 2.261303,-5.050763 5.050762,-5.050763 2.789459,0 5.050763,2.261304 5.050763,5.050763 z"
         sodipodi:ry="5.0507627"
         sodipodi:rx="5.0507627"
         sodipodi:cy="-47.533035"
         sodipodi:cx="22.223356"
         id="path3263"
         style="fill:#008000;fill-opacity:1;stroke:none"
         sodipodi:type="arc" />
    </g>
    <g
       transform="translate(3.5714286,20.357137)"
       id="g3265">
      <path
         inkscape:connector-curvature="0"
         id="path3267"
         d="m 733.07133,956.855 -537.40116,0"
         style="fill:none;stroke:#cccccc;stroke-width:1.1564374px;stroke-linecap:butt;stroke-linejoin:miter;stroke-opacity:1" />
      <path
         transform="translate(199.38874,1003.9307)"
         d="m 27.274119,-47.533035 c 0,2.789459 -2.261304,5.050762 -5.050763,5.050762 -2.789459,0 -5.050762,-2.261303 -5.050762,-5.050762 0,-2.789459 2.261303,-5.050763 5.050762,-5.050763 2.789459,0 5.050763,2.261304 5.050763,5.050763 z"
         sodipodi:ry="5.0507627"
         sodipodi:rx="5.0507627"
         sodipodi:cy="-47.533035"
         sodipodi:cx="22.223356"
         id="path3269"
         style="fill:#008000;fill-opacity:1;stroke:none"
         sodipodi:type="arc" />
      <path
         sodipodi:type="arc"
         style="fill:#aa0000;fill-opacity:1;stroke:none"
         id="path3271"
         sodipodi:cx="22.223356"
         sodipodi:cy="-47.533035"
         sodipodi:rx="5.0507627"
         sodipodi:ry="5.0507627"
         d="m 27.274119,-47.533035 c 0,2.789459 -2.261304,5.050762 -5.050763,5.050762 -2.789459,0 -5.050762,-2.261303 -5.050762,-5.050762 0,-2.789459 2.261303,-5.050763 5.050762,-5.050763 2.789459,0 5.050763,2.261304 5.050763,5.050763 z"
         transform="translate(300.69259,1003.9307)" />
      <path
         transform="translate(255.31117,1003.9307)"
         d="m 27.274119,-47.533035 c 0,2.789459 -2.261304,5.050762 -5.050763,5.050762 -2.789459,0 -5.050762,-2.261303 -5.050762,-5.050762 0,-2.789459 2.261303,-5.050763 5.050762,-5.050763 2.789459,0 5.050763,2.261304 5.050763,5.050763 z"
         sodipodi:ry="5.0507627"
         sodipodi:rx="5.0507627"
         sodipodi:cy="-47.533035"
         sodipodi:cx="22.223356"
         id="path3273"
         style="fill:#008000;fill-opacity:1;stroke:none"
         sodipodi:type="arc" />
      <path
         sodipodi:type="arc"
         style="fill:#008000;fill-opacity:1;stroke:none"
         id="path3275"
         sodipodi:cx="22.223356"
         sodipodi:cy="-47.533035"
         sodipodi:rx="5.0507627"
         sodipodi:ry="5.0507627"
         d="m 27.274119,-47.533035 c 0,2.789459 -2.261304,5.050762 -5.050763,5.050762 -2.789459,0 -5.050762,-2.261303 -5.050762,-5.050762 0,-2.789459 2.261303,-5.050763 5.050762,-5.050763 2.789459,0 5.050763,2.261304 5.050763,5.050763 z"
         transform="translate(461.24593,1003.9307)" />
      <path
         transform="translate(392.65858,1003.9307)"
         d="m 27.274119,-47.533035 c 0,2.789459 -2.261304,5.050762 -5.050763,5.050762 -2.789459,0 -5.050762,-2.261303 -5.050762,-5.050762 0,-2.789459 2.261303,-5.050763 5.050762,-5.050763 2.789459,0 5.050763,2.261304 5.050763,5.050763 z"
         sodipodi:ry="5.0507627"
         sodipodi:rx="5.0507627"
         sodipodi:cy="-47.533035"
         sodipodi:cx="22.223356"
         id="path3277"
         style="fill:#d40000;fill-opacity:1;stroke:none"
         sodipodi:type="arc" />
      <path
         sodipodi:type="arc"
         style="fill:#008000;fill-opacity:1;stroke:none"
         id="path3279"
         sodipodi:cx="22.223356"
         sodipodi:cy="-47.533035"
         sodipodi:rx="5.0507627"
         sodipodi:ry="5.0507627"
         d="m 27.274119,-47.533035 c 0,2.789459 -2.261304,5.050762 -5.050763,5.050762 -2.789459,0 -5.050762,-2.261303 -5.050762,-5.050762 0,-2.789459 2.261303,-5.050763 5.050762,-5.050763 2.789459,0 5.050763,2.261304 5.050763,5.050763 z"
         transform="translate(573.31743,1003.9307)" />
    </g>
    <g
       transform="translate(3.5714286,42.857138)"
       id="g3329">
      <path
         inkscape:connector-curvature="0"
         id="path3331"
         d="m 733.07133,956.855 -537.40116,0"
         style="fill:none;stroke:#cccccc;stroke-width:1.1564374px;stroke-linecap:butt;stroke-linejoin:miter;stroke-opacity:1" />
      <path
         transform="translate(250.81731,1003.9307)"
         d="m 27.274119,-47.533035 c 0,2.789459 -2.261304,5.050762 -5.050763,5.050762 -2.789459,0 -5.050762,-2.261303 -5.050762,-5.050762 0,-2.789459 2.261303,-5.050763 5.050762,-5.050763 2.789459,0 5.050763,2.261304 5.050763,5.050763 z"
         sodipodi:ry="5.0507627"
         sodipodi:rx="5.0507627"
         sodipodi:cy="-47.533035"
         sodipodi:cx="22.223356"
         id="path3333"
         style="fill:#008000;fill-opacity:1;stroke:none"
         sodipodi:type="arc" />
      <path
         sodipodi:type="arc"
         style="fill:#aa0000;fill-opacity:1;stroke:none"
         id="path3335"
         sodipodi:cx="22.223356"
         sodipodi:cy="-47.533035"
         sodipodi:rx="5.0507627"
         sodipodi:ry="5.0507627"
         d="m 27.274119,-47.533035 c 0,2.789459 -2.261304,5.050762 -5.050763,5.050762 -2.789459,0 -5.050762,-2.261303 -5.050762,-5.050762 0,-2.789459 2.261303,-5.050763 5.050762,-5.050763 2.789459,0 5.050763,2.261304 5.050763,5.050763 z"
         transform="translate(338.83545,1003.9307)" />
      <path
         transform="translate(421.23,1003.9307)"
         d="m 27.274119,-47.533035 c 0,2.789459 -2.261304,5.050762 -5.050763,5.050762 -2.789459,0 -5.050762,-2.261303 -5.050762,-5.050762 0,-2.789459 2.261303,-5.050763 5.050762,-5.050763 2.789459,0 5.050763,2.261304 5.050763,5.050763 z"
         sodipodi:ry="5.0507627"
         sodipodi:rx="5.0507627"
         sodipodi:cy="-47.533035"
         sodipodi:cx="22.223356"
         id="path3341"
         style="fill:#d40000;fill-opacity:1;stroke:none"
         sodipodi:type="arc" />
      <path
         sodipodi:type="arc"
         style="fill:#d40000;fill-opacity:1;stroke:none"
         id="path3397"
         sodipodi:cx="22.223356"
         sodipodi:cy="-47.533035"
         sodipodi:rx="5.0507627"
         sodipodi:ry="5.0507627"
         d="m 27.274119,-47.533035 c 0,2.789459 -2.261304,5.050762 -5.050763,5.050762 -2.789459,0 -5.050762,-2.261303 -5.050762,-5.050762 0,-2.789459 2.261303,-5.050763 5.050762,-5.050763 2.789459,0 5.050763,2.261304 5.050763,5.050763 z"
         transform="translate(464.80143,1003.9307)" />
      <path
         transform="translate(504.08714,1003.9307)"
         d="m 27.274119,-47.533035 c 0,2.789459 -2.261304,5.050762 -5.050763,5.050762 -2.789459,0 -5.050762,-2.261303 -5.050762,-5.050762 0,-2.789459 2.261303,-5.050763 5.050762,-5.050763 2.789459,0 5.050763,2.261304 5.050763,5.050763 z"
         sodipodi:ry="5.0507627"
         sodipodi:rx="5.0507627"
         sodipodi:cy="-47.533035"
         sodipodi:cx="22.223356"
         id="path3399"
         style="fill:#d40000;fill-opacity:1;stroke:none"
         sodipodi:type="arc" />
      <path
         sodipodi:type="arc"
         style="fill:#d40000;fill-opacity:1;stroke:none"
         id="path3401"
         sodipodi:cx="22.223356"
         sodipodi:cy="-47.533035"
         sodipodi:rx="5.0507627"
         sodipodi:ry="5.0507627"
         d="m 27.274119,-47.533035 c 0,2.789459 -2.261304,5.050762 -5.050763,5.050762 -2.789459,0 -5.050762,-2.261303 -5.050762,-5.050762 0,-2.789459 2.261303,-5.050763 5.050762,-5.050763 2.789459,0 5.050763,2.261304 5.050763,5.050763 z"
         transform="translate(554.08714,1003.9307)" />
      <path
         transform="translate(624.80143,1003.9307)"
         d="m 27.274119,-47.533035 c 0,2.789459 -2.261304,5.050762 -5.050763,5.050762 -2.789459,0 -5.050762,-2.261303 -5.050762,-5.050762 0,-2.789459 2.261303,-5.050763 5.050762,-5.050763 2.789459,0 5.050763,2.261304 5.050763,5.050763 z"
         sodipodi:ry="5.0507627"
         sodipodi:rx="5.0507627"
         sodipodi:cy="-47.533035"
         sodipodi:cx="22.223356"
         id="path3403"
         style="fill:#d40000;fill-opacity:1;stroke:none"
         sodipodi:type="arc" />
      <path
         sodipodi:type="arc"
         style="fill:#d40000;fill-opacity:1;stroke:none"
         id="path3405"
         sodipodi:cx="22.223356"
         sodipodi:cy="-47.533035"
         sodipodi:rx="5.0507627"
         sodipodi:ry="5.0507627"
         d="m 27.274119,-47.533035 c 0,2.789459 -2.261304,5.050762 -5.050763,5.050762 -2.789459,0 -5.050762,-2.261303 -5.050762,-5.050762 0,-2.789459 2.261303,-5.050763 5.050762,-5.050763 2.789459,0 5.050763,2.261304 5.050763,5.050763 z"
         transform="translate(689.80143,1003.9307)" />
    </g>
    <g
       id="g3345"
       transform="translate(3.5714286,31.607138)">
      <path
         style="fill:none;stroke:#cccccc;stroke-width:1.1564374px;stroke-linecap:butt;stroke-linejoin:miter;stroke-opacity:1"
         d="m 733.07133,956.855 -537.40116,0"
         id="path3347"
         inkscape:connector-curvature="0" />
      <path
         sodipodi:type="arc"
         style="fill:#008000;fill-opacity:1;stroke:none"
         id="path3349"
         sodipodi:cx="22.223356"
         sodipodi:cy="-47.533035"
         sodipodi:rx="5.0507627"
         sodipodi:ry="5.0507627"
         d="m 27.274119,-47.533035 c 0,2.789459 -2.261304,5.050762 -5.050763,5.050762 -2.789459,0 -5.050762,-2.261303 -5.050762,-5.050762 0,-2.789459 2.261303,-5.050763 5.050762,-5.050763 2.789459,0 5.050763,2.261304 5.050763,5.050763 z"
         transform="translate(260.81731,1003.9307)" />
      <path
         transform="translate(205.97831,1003.9307)"
         d="m 27.274119,-47.533035 c 0,2.789459 -2.261304,5.050762 -5.050763,5.050762 -2.789459,0 -5.050762,-2.261303 -5.050762,-5.050762 0,-2.789459 2.261303,-5.050763 5.050762,-5.050763 2.789459,0 5.050763,2.261304 5.050763,5.050763 z"
         sodipodi:ry="5.0507627"
         sodipodi:rx="5.0507627"
         sodipodi:cy="-47.533035"
         sodipodi:cx="22.223356"
         id="path3351"
         style="fill:#aa0000;fill-opacity:1;stroke:none"
         sodipodi:type="arc" />
      <path
         sodipodi:type="arc"
         style="fill:#008000;fill-opacity:1;stroke:none"
         id="path3353"
         sodipodi:cx="22.223356"
         sodipodi:cy="-47.533035"
         sodipodi:rx="5.0507627"
         sodipodi:ry="5.0507627"
         d="m 27.274119,-47.533035 c 0,2.789459 -2.261304,5.050762 -5.050763,5.050762 -2.789459,0 -5.050762,-2.261303 -5.050762,-5.050762 0,-2.789459 2.261303,-5.050763 5.050762,-5.050763 2.789459,0 5.050763,2.261304 5.050763,5.050763 z"
         transform="translate(317.45403,1003.9307)" />
      <path
         transform="translate(355.53165,1003.9307)"
         d="m 27.274119,-47.533035 c 0,2.789459 -2.261304,5.050762 -5.050763,5.050762 -2.789459,0 -5.050762,-2.261303 -5.050762,-5.050762 0,-2.789459 2.261303,-5.050763 5.050762,-5.050763 2.789459,0 5.050763,2.261304 5.050763,5.050763 z"
         sodipodi:ry="5.0507627"
         sodipodi:rx="5.0507627"
         sodipodi:cy="-47.533035"
         sodipodi:cx="22.223356"
         id="path3355"
         style="fill:#008000;fill-opacity:1;stroke:none"
         sodipodi:type="arc" />
      <path
         sodipodi:type="arc"
         style="fill:#008000;fill-opacity:1;stroke:none"
         id="path3357"
         sodipodi:cx="22.223356"
         sodipodi:cy="-47.533035"
         sodipodi:rx="5.0507627"
         sodipodi:ry="5.0507627"
         d="m 27.274119,-47.533035 c 0,2.789459 -2.261304,5.050762 -5.050763,5.050762 -2.789459,0 -5.050762,-2.261303 -5.050762,-5.050762 0,-2.789459 2.261303,-5.050763 5.050762,-5.050763 2.789459,0 5.050763,2.261304 5.050763,5.050763 z"
         transform="translate(491.94429,1003.9307)" />
      <path
         transform="translate(560.46029,1003.9307)"
         d="m 27.274119,-47.533035 c 0,2.789459 -2.261304,5.050762 -5.050763,5.050762 -2.789459,0 -5.050762,-2.261303 -5.050762,-5.050762 0,-2.789459 2.261303,-5.050763 5.050762,-5.050763 2.789459,0 5.050763,2.261304 5.050763,5.050763 z"
         sodipodi:ry="5.0507627"
         sodipodi:rx="5.0507627"
         sodipodi:cy="-47.533035"
         sodipodi:cx="22.223356"
         id="path3359"
         style="fill:#008000;fill-opacity:1;stroke:none"
         sodipodi:type="arc" />
      <path
         sodipodi:type="arc"
         style="fill:#008000;fill-opacity:1;stroke:none"
         id="path3393"
         sodipodi:cx="22.223356"
         sodipodi:cy="-47.533035"
         sodipodi:rx="5.0507627"
         sodipodi:ry="5.0507627"
         d="m 27.274119,-47.533035 c 0,2.789459 -2.261304,5.050762 -5.050763,5.050762 -2.789459,0 -5.050762,-2.261303 -5.050762,-5.050762 0,-2.789459 2.261303,-5.050763 5.050762,-5.050763 2.789459,0 5.050763,2.261304 5.050763,5.050763 z"
         transform="translate(599.03172,1003.9307)" />
      <path
         transform="translate(644.74601,1003.9307)"
         d="m 27.274119,-47.533035 c 0,2.789459 -2.261304,5.050762 -5.050763,5.050762 -2.789459,0 -5.050762,-2.261303 -5.050762,-5.050762 0,-2.789459 2.261303,-5.050763 5.050762,-5.050763 2.789459,0 5.050763,2.261304 5.050763,5.050763 z"
         sodipodi:ry="5.0507627"
         sodipodi:rx="5.0507627"
         sodipodi:cy="-47.533035"
         sodipodi:cx="22.223356"
         id="path3395"
         style="fill:#008000;fill-opacity:1;stroke:none"
         sodipodi:type="arc" />
    </g>
    <g
       transform="translate(3.5714286,54.107138)"
       id="g3407">
      <path
         style="fill:none;stroke:#cccccc;stroke-width:1.1564374px;stroke-linecap:butt;stroke-linejoin:miter;stroke-opacity:1"
         d="m 733.07133,956.855 -537.40116,0"
         id="path3409"
         inkscape:connector-curvature="0" />
      <path
         sodipodi:type="arc"
         style="fill:#008000;fill-opacity:1;stroke:none"
         id="path3411"
         sodipodi:cx="22.223356"
         sodipodi:cy="-47.533035"
         sodipodi:rx="5.0507627"
         sodipodi:ry="5.0507627"
         d="m 27.274119,-47.533035 c 0,2.789459 -2.261304,5.050762 -5.050763,5.050762 -2.789459,0 -5.050762,-2.261303 -5.050762,-5.050762 0,-2.789459 2.261303,-5.050763 5.050762,-5.050763 2.789459,0 5.050763,2.261304 5.050763,5.050763 z"
         transform="translate(180.81731,1003.9307)" />
      <path
         transform="translate(225.26402,1003.9307)"
         d="m 27.274119,-47.533035 c 0,2.789459 -2.261304,5.050762 -5.050763,5.050762 -2.789459,0 -5.050762,-2.261303 -5.050762,-5.050762 0,-2.789459 2.261303,-5.050763 5.050762,-5.050763 2.789459,0 5.050763,2.261304 5.050763,5.050763 z"
         sodipodi:ry="5.0507627"
         sodipodi:rx="5.0507627"
         sodipodi:cy="-47.533035"
         sodipodi:cx="22.223356"
         id="path3413"
         style="fill:#aa0000;fill-opacity:1;stroke:none"
         sodipodi:type="arc" />
      <path
         sodipodi:type="arc"
         style="fill:#008000;fill-opacity:1;stroke:none"
         id="path3415"
         sodipodi:cx="22.223356"
         sodipodi:cy="-47.533035"
         sodipodi:rx="5.0507627"
         sodipodi:ry="5.0507627"
         d="m 27.274119,-47.533035 c 0,2.789459 -2.261304,5.050762 -5.050763,5.050762 -2.789459,0 -5.050762,-2.261303 -5.050762,-5.050762 0,-2.789459 2.261303,-5.050763 5.050762,-5.050763 2.789459,0 5.050763,2.261304 5.050763,5.050763 z"
         transform="translate(301.02546,1003.9307)" />
      <path
         transform="translate(379.81736,1003.9307)"
         d="m 27.274119,-47.533035 c 0,2.789459 -2.261304,5.050762 -5.050763,5.050762 -2.789459,0 -5.050762,-2.261303 -5.050762,-5.050762 0,-2.789459 2.261303,-5.050763 5.050762,-5.050763 2.789459,0 5.050763,2.261304 5.050763,5.050763 z"
         sodipodi:ry="5.0507627"
         sodipodi:rx="5.0507627"
         sodipodi:cy="-47.533035"
         sodipodi:cx="22.223356"
         id="path3417"
         style="fill:#008000;fill-opacity:1;stroke:none"
         sodipodi:type="arc" />
      <path
         sodipodi:type="arc"
         style="fill:#d40000;fill-opacity:1;stroke:none"
         id="path3419"
         sodipodi:cx="22.223356"
         sodipodi:cy="-47.533035"
         sodipodi:rx="5.0507627"
         sodipodi:ry="5.0507627"
         d="m 27.274119,-47.533035 c 0,2.789459 -2.261304,5.050762 -5.050763,5.050762 -2.789459,0 -5.050762,-2.261303 -5.050762,-5.050762 0,-2.789459 2.261303,-5.050763 5.050762,-5.050763 2.789459,0 5.050763,2.261304 5.050763,5.050763 z"
         transform="translate(491.94429,1003.9307)" />
      <path
         transform="translate(678.31743,1003.9307)"
         d="m 27.274119,-47.533035 c 0,2.789459 -2.261304,5.050762 -5.050763,5.050762 -2.789459,0 -5.050762,-2.261303 -5.050762,-5.050762 0,-2.789459 2.261303,-5.050763 5.050762,-5.050763 2.789459,0 5.050763,2.261304 5.050763,5.050763 z"
         sodipodi:ry="5.0507627"
         sodipodi:rx="5.0507627"
         sodipodi:cy="-47.533035"
         sodipodi:cx="22.223356"
         id="path3421"
         style="fill:#008000;fill-opacity:1;stroke:none"
         sodipodi:type="arc" />
    </g>
    <g
       id="g3423"
       transform="translate(0,56.071441)">
      <path
         inkscape:connector-curvature="0"
         id="path3425"
         d="m 736.64276,966.14072 -537.40116,0"
         style="fill:none;stroke:#cccccc;stroke-width:1.1564374px;stroke-linecap:butt;stroke-linejoin:miter;stroke-opacity:1" />
      <path
         transform="translate(198.67445,1013.2164)"
         d="m 27.274119,-47.533035 c 0,2.789459 -2.261304,5.050762 -5.050763,5.050762 -2.789459,0 -5.050762,-2.261303 -5.050762,-5.050762 0,-2.789459 2.261303,-5.050763 5.050762,-5.050763 2.789459,0 5.050763,2.261304 5.050763,5.050763 z"
         sodipodi:ry="5.0507627"
         sodipodi:rx="5.0507627"
         sodipodi:cy="-47.533035"
         sodipodi:cx="22.223356"
         id="path3427"
         style="fill:#008000;fill-opacity:1;stroke:none"
         sodipodi:type="arc" />
      <path
         sodipodi:type="arc"
         style="fill:#aa0000;fill-opacity:1;stroke:none"
         id="path3429"
         sodipodi:cx="22.223356"
         sodipodi:cy="-47.533035"
         sodipodi:rx="5.0507627"
         sodipodi:ry="5.0507627"
         d="m 27.274119,-47.533035 c 0,2.789459 -2.261304,5.050762 -5.050763,5.050762 -2.789459,0 -5.050762,-2.261303 -5.050762,-5.050762 0,-2.789459 2.261303,-5.050763 5.050762,-5.050763 2.789459,0 5.050763,2.261304 5.050763,5.050763 z"
         transform="translate(271.97831,1013.2164)" />
      <path
         transform="translate(242.59689,1013.2164)"
         d="m 27.274119,-47.533035 c 0,2.789459 -2.261304,5.050762 -5.050763,5.050762 -2.789459,0 -5.050762,-2.261303 -5.050762,-5.050762 0,-2.789459 2.261303,-5.050763 5.050762,-5.050763 2.789459,0 5.050763,2.261304 5.050763,5.050763 z"
         sodipodi:ry="5.0507627"
         sodipodi:rx="5.0507627"
         sodipodi:cy="-47.533035"
         sodipodi:cx="22.223356"
         id="path3431"
         style="fill:#008000;fill-opacity:1;stroke:none"
         sodipodi:type="arc" />
      <path
         sodipodi:type="arc"
         style="fill:#008000;fill-opacity:1;stroke:none"
         id="path3433"
         sodipodi:cx="22.223356"
         sodipodi:cy="-47.533035"
         sodipodi:rx="5.0507627"
         sodipodi:ry="5.0507627"
         d="m 27.274119,-47.533035 c 0,2.789459 -2.261304,5.050762 -5.050763,5.050762 -2.789459,0 -5.050762,-2.261303 -5.050762,-5.050762 0,-2.789459 2.261303,-5.050763 5.050762,-5.050763 2.789459,0 5.050763,2.261304 5.050763,5.050763 z"
         transform="translate(351.38879,1013.2164)" />
      <path
         transform="translate(613.23001,1013.2164)"
         d="m 27.274119,-47.533035 c 0,2.789459 -2.261304,5.050762 -5.050763,5.050762 -2.789459,0 -5.050762,-2.261303 -5.050762,-5.050762 0,-2.789459 2.261303,-5.050763 5.050762,-5.050763 2.789459,0 5.050763,2.261304 5.050763,5.050763 z"
         sodipodi:ry="5.0507627"
         sodipodi:rx="5.0507627"
         sodipodi:cy="-47.533035"
         sodipodi:cx="22.223356"
         id="path3435"
         style="fill:#d40000;fill-opacity:1;stroke:none"
         sodipodi:type="arc" />
      <path
         sodipodi:type="arc"
         style="fill:#008000;fill-opacity:1;stroke:none"
         id="path3437"
         sodipodi:cx="22.223356"
         sodipodi:cy="-47.533035"
         sodipodi:rx="5.0507627"
         sodipodi:ry="5.0507627"
         d="m 27.274119,-47.533035 c 0,2.789459 -2.261304,5.050762 -5.050763,5.050762 -2.789459,0 -5.050762,-2.261303 -5.050762,-5.050762 0,-2.789459 2.261303,-5.050763 5.050762,-5.050763 2.789459,0 5.050763,2.261304 5.050763,5.050763 z"
         transform="translate(509.03172,1013.2164)" />
    </g>
    <g
       id="g3439"
       transform="translate(3.5714286,76.60714)">
      <path
         style="fill:none;stroke:#cccccc;stroke-width:1.1564374px;stroke-linecap:butt;stroke-linejoin:miter;stroke-opacity:1"
         d="m 733.07133,956.855 -537.40116,0"
         id="path3441"
         inkscape:connector-curvature="0" />
      <path
         sodipodi:type="arc"
         style="fill:#008000;fill-opacity:1;stroke:none"
         id="path3443"
         sodipodi:cx="22.223356"
         sodipodi:cy="-47.533035"
         sodipodi:rx="5.0507627"
         sodipodi:ry="5.0507627"
         d="m 27.274119,-47.533035 c 0,2.789459 -2.261304,5.050762 -5.050763,5.050762 -2.789459,0 -5.050762,-2.261303 -5.050762,-5.050762 0,-2.789459 2.261303,-5.050763 5.050762,-5.050763 2.789459,0 5.050763,2.261304 5.050763,5.050763 z"
         transform="translate(199.38874,1003.9307)" />
      <path
         transform="translate(300.69259,1003.9307)"
         d="m 27.274119,-47.533035 c 0,2.789459 -2.261304,5.050762 -5.050763,5.050762 -2.789459,0 -5.050762,-2.261303 -5.050762,-5.050762 0,-2.789459 2.261303,-5.050763 5.050762,-5.050763 2.789459,0 5.050763,2.261304 5.050763,5.050763 z"
         sodipodi:ry="5.0507627"
         sodipodi:rx="5.0507627"
         sodipodi:cy="-47.533035"
         sodipodi:cx="22.223356"
         id="path3445"
         style="fill:#aa0000;fill-opacity:1;stroke:none"
         sodipodi:type="arc" />
      <path
         sodipodi:type="arc"
         style="fill:#008000;fill-opacity:1;stroke:none"
         id="path3447"
         sodipodi:cx="22.223356"
         sodipodi:cy="-47.533035"
         sodipodi:rx="5.0507627"
         sodipodi:ry="5.0507627"
         d="m 27.274119,-47.533035 c 0,2.789459 -2.261304,5.050762 -5.050763,5.050762 -2.789459,0 -5.050762,-2.261303 -5.050762,-5.050762 0,-2.789459 2.261303,-5.050763 5.050762,-5.050763 2.789459,0 5.050763,2.261304 5.050763,5.050763 z"
         transform="translate(255.31117,1003.9307)" />
      <path
         transform="translate(461.24593,1003.9307)"
         d="m 27.274119,-47.533035 c 0,2.789459 -2.261304,5.050762 -5.050763,5.050762 -2.789459,0 -5.050762,-2.261303 -5.050762,-5.050762 0,-2.789459 2.261303,-5.050763 5.050762,-5.050763 2.789459,0 5.050763,2.261304 5.050763,5.050763 z"
         sodipodi:ry="5.0507627"
         sodipodi:rx="5.0507627"
         sodipodi:cy="-47.533035"
         sodipodi:cx="22.223356"
         id="path3449"
         style="fill:#008000;fill-opacity:1;stroke:none"
         sodipodi:type="arc" />
      <path
         sodipodi:type="arc"
         style="fill:#d40000;fill-opacity:1;stroke:none"
         id="path3451"
         sodipodi:cx="22.223356"
         sodipodi:cy="-47.533035"
         sodipodi:rx="5.0507627"
         sodipodi:ry="5.0507627"
         d="m 27.274119,-47.533035 c 0,2.789459 -2.261304,5.050762 -5.050763,5.050762 -2.789459,0 -5.050762,-2.261303 -5.050762,-5.050762 0,-2.789459 2.261303,-5.050763 5.050762,-5.050763 2.789459,0 5.050763,2.261304 5.050763,5.050763 z"
         transform="translate(392.65858,1003.9307)" />
      <path
         transform="translate(573.31743,1003.9307)"
         d="m 27.274119,-47.533035 c 0,2.789459 -2.261304,5.050762 -5.050763,5.050762 -2.789459,0 -5.050762,-2.261303 -5.050762,-5.050762 0,-2.789459 2.261303,-5.050763 5.050762,-5.050763 2.789459,0 5.050763,2.261304 5.050763,5.050763 z"
         sodipodi:ry="5.0507627"
         sodipodi:rx="5.0507627"
         sodipodi:cy="-47.533035"
         sodipodi:cx="22.223356"
         id="path3453"
         style="fill:#008000;fill-opacity:1;stroke:none"
         sodipodi:type="arc" />
    </g>
    <g
       transform="translate(3.5714286,87.857141)"
       id="g3475">
      <path
         inkscape:connector-curvature="0"
         id="path3477"
         d="m 733.07133,956.855 -537.40116,0"
         style="fill:none;stroke:#cccccc;stroke-width:1.1564374px;stroke-linecap:butt;stroke-linejoin:miter;stroke-opacity:1" />
      <path
         transform="translate(260.81731,1003.9307)"
         d="m 27.274119,-47.533035 c 0,2.789459 -2.261304,5.050762 -5.050763,5.050762 -2.789459,0 -5.050762,-2.261303 -5.050762,-5.050762 0,-2.789459 2.261303,-5.050763 5.050762,-5.050763 2.789459,0 5.050763,2.261304 5.050763,5.050763 z"
         sodipodi:ry="5.0507627"
         sodipodi:rx="5.0507627"
         sodipodi:cy="-47.533035"
         sodipodi:cx="22.223356"
         id="path3479"
         style="fill:#008000;fill-opacity:1;stroke:none"
         sodipodi:type="arc" />
      <path
         sodipodi:type="arc"
         style="fill:#aa0000;fill-opacity:1;stroke:none"
         id="path3481"
         sodipodi:cx="22.223356"
         sodipodi:cy="-47.533035"
         sodipodi:rx="5.0507627"
         sodipodi:ry="5.0507627"
         d="m 27.274119,-47.533035 c 0,2.789459 -2.261304,5.050762 -5.050763,5.050762 -2.789459,0 -5.050762,-2.261303 -5.050762,-5.050762 0,-2.789459 2.261303,-5.050763 5.050762,-5.050763 2.789459,0 5.050763,2.261304 5.050763,5.050763 z"
         transform="translate(205.97831,1003.9307)" />
      <path
         transform="translate(317.45403,1003.9307)"
         d="m 27.274119,-47.533035 c 0,2.789459 -2.261304,5.050762 -5.050763,5.050762 -2.789459,0 -5.050762,-2.261303 -5.050762,-5.050762 0,-2.789459 2.261303,-5.050763 5.050762,-5.050763 2.789459,0 5.050763,2.261304 5.050763,5.050763 z"
         sodipodi:ry="5.0507627"
         sodipodi:rx="5.0507627"
         sodipodi:cy="-47.533035"
         sodipodi:cx="22.223356"
         id="path3483"
         style="fill:#008000;fill-opacity:1;stroke:none"
         sodipodi:type="arc" />
      <path
         sodipodi:type="arc"
         style="fill:#008000;fill-opacity:1;stroke:none"
         id="path3485"
         sodipodi:cx="22.223356"
         sodipodi:cy="-47.533035"
         sodipodi:rx="5.0507627"
         sodipodi:ry="5.0507627"
         d="m 27.274119,-47.533035 c 0,2.789459 -2.261304,5.050762 -5.050763,5.050762 -2.789459,0 -5.050762,-2.261303 -5.050762,-5.050762 0,-2.789459 2.261303,-5.050763 5.050762,-5.050763 2.789459,0 5.050763,2.261304 5.050763,5.050763 z"
         transform="translate(355.53165,1003.9307)" />
      <path
         transform="translate(491.94429,1003.9307)"
         d="m 27.274119,-47.533035 c 0,2.789459 -2.261304,5.050762 -5.050763,5.050762 -2.789459,0 -5.050762,-2.261303 -5.050762,-5.050762 0,-2.789459 2.261303,-5.050763 5.050762,-5.050763 2.789459,0 5.050763,2.261304 5.050763,5.050763 z"
         sodipodi:ry="5.0507627"
         sodipodi:rx="5.0507627"
         sodipodi:cy="-47.533035"
         sodipodi:cx="22.223356"
         id="path3487"
         style="fill:#008000;fill-opacity:1;stroke:none"
         sodipodi:type="arc" />
      <path
         sodipodi:type="arc"
         style="fill:#008000;fill-opacity:1;stroke:none"
         id="path3489"
         sodipodi:cx="22.223356"
         sodipodi:cy="-47.533035"
         sodipodi:rx="5.0507627"
         sodipodi:ry="5.0507627"
         d="m 27.274119,-47.533035 c 0,2.789459 -2.261304,5.050762 -5.050763,5.050762 -2.789459,0 -5.050762,-2.261303 -5.050762,-5.050762 0,-2.789459 2.261303,-5.050763 5.050762,-5.050763 2.789459,0 5.050763,2.261304 5.050763,5.050763 z"
         transform="translate(560.46029,1003.9307)" />
      <path
         transform="translate(599.03172,1003.9307)"
         d="m 27.274119,-47.533035 c 0,2.789459 -2.261304,5.050762 -5.050763,5.050762 -2.789459,0 -5.050762,-2.261303 -5.050762,-5.050762 0,-2.789459 2.261303,-5.050763 5.050762,-5.050763 2.789459,0 5.050763,2.261304 5.050763,5.050763 z"
         sodipodi:ry="5.0507627"
         sodipodi:rx="5.0507627"
         sodipodi:cy="-47.533035"
         sodipodi:cx="22.223356"
         id="path3491"
         style="fill:#008000;fill-opacity:1;stroke:none"
         sodipodi:type="arc" />
      <path
         sodipodi:type="arc"
         style="fill:#008000;fill-opacity:1;stroke:none"
         id="path3493"
         sodipodi:cx="22.223356"
         sodipodi:cy="-47.533035"
         sodipodi:rx="5.0507627"
         sodipodi:ry="5.0507627"
         d="m 27.274119,-47.533035 c 0,2.789459 -2.261304,5.050762 -5.050763,5.050762 -2.789459,0 -5.050762,-2.261303 -5.050762,-5.050762 0,-2.789459 2.261303,-5.050763 5.050762,-5.050763 2.789459,0 5.050763,2.261304 5.050763,5.050763 z"
         transform="translate(644.74601,1003.9307)" />
    </g>
  </g>
</svg>
